<svg xmlns="http://www.w3.org/2000/svg" xmlns:xlink="http://www.w3.org/1999/xlink" width="102" height="102" viewBox="0 0 102 102">
  <defs>
    <clipPath id="clip-path">
      <path id="Path_698" data-name="Path 698" d="M0,0H102V102H0Z" fill="none"/>
    </clipPath>
  </defs>
  <g id="Group_923" data-name="Group 923" transform="translate(-4669.066 -2614.913)">
    <g id="Group_892" data-name="Group 892" transform="translate(4669.066 2614.913)">
      <g id="Mask_Group_579" data-name="Mask Group 579" transform="translate(0 0)" clip-path="url(#clip-path)">
        <rect id="Rectangle_438" data-name="Rectangle 438" width="99.943" height="99.943" transform="translate(1.027 1.027)" fill="none" stroke="#35434c" stroke-width="2"/>
      </g>
    </g>
    <path id="Path_647" data-name="Path 647" d="M274.057,303.02V280.14a1.281,1.281,0,0,1,1.282-1.282h7.878a11.047,11.047,0,0,1,5.07,1.036,6.87,6.87,0,0,1,2.981,2.781,8.149,8.149,0,0,1,.963,4,7.953,7.953,0,0,1-.945,3.853,7.082,7.082,0,0,1-2.944,2.835,10.637,10.637,0,0,1-5.126,1.092h-4.8v8.568a1.282,1.282,0,0,1-1.283,1.282h-1.8a1.281,1.281,0,0,1-1.282-1.282m4.362-12.13H283a4.992,4.992,0,0,0,3.67-1.146,4.233,4.233,0,0,0,1.128-3.107,4.164,4.164,0,0,0-1.128-3.109A5.1,5.1,0,0,0,283,282.42h-4.581Z" transform="translate(4438.42 2358.669)" fill="#35434c"/>
    <rect id="Rectangle_440" data-name="Rectangle 440" width="40.716" height="40.716" transform="translate(4699.707 2629.892)" fill="none" stroke="#35434c" stroke-linecap="round" stroke-linejoin="round" stroke-width="2"/>
    <line id="Line_159" data-name="Line 159" y2="24.902" transform="translate(4720.066 2671.063)" fill="none" stroke="#35434c" stroke-linecap="round" stroke-linejoin="round" stroke-width="2"/>
    <rect id="Rectangle_441" data-name="Rectangle 441" width="23.13" height="5.593" rx="1.316" transform="translate(4708.5 2696.342)" fill="none" stroke="#35434c" stroke-linecap="round" stroke-linejoin="round" stroke-width="2"/>
  </g>
</svg>
