<svg xmlns="http://www.w3.org/2000/svg" xmlns:xlink="http://www.w3.org/1999/xlink" width="102" height="102" viewBox="0 0 102 102">
  <defs>
    <clipPath id="clip-path">
      <rect id="Rectangle_314" data-name="Rectangle 314" width="102" height="102" fill="none"/>
    </clipPath>
  </defs>
  <g id="Group_587" data-name="Group 587" transform="translate(-1172.034 -3291.766)">
    <g id="Group_586" data-name="Group 586" transform="translate(1172.034 3291.766)">
      <g id="Group_583" data-name="Group 583">
        <g id="Group_582" data-name="Group 582" clip-path="url(#clip-path)">
          <rect id="Rectangle_313" data-name="Rectangle 313" width="99.943" height="99.943" transform="translate(1.028 1.028)" fill="none" stroke="#35434c" stroke-width="2.058"/>
        </g>
      </g>
      <line id="Line_75" data-name="Line 75" y1="24.163" transform="translate(51 60.224)" fill="none" stroke="#35434c" stroke-linecap="round" stroke-linejoin="round" stroke-width="2"/>
      <path id="Path_381" data-name="Path 381" d="M51.56,29.725H21.9l14.833-6.5,14.832-6.5,14.832,6.5,14.833,6.5Z" transform="translate(-0.03 -0.011)" fill="none" stroke="#35434c" stroke-linecap="round" stroke-linejoin="round" stroke-width="2"/>
      <g id="Group_585" data-name="Group 585">
        <g id="Group_584" data-name="Group 584" clip-path="url(#clip-path)">
          <path id="Path_382" data-name="Path 382" d="M39.876,34.044H23.68A1.791,1.791,0,0,1,21.9,32.259V29.725H41.661v2.534A1.791,1.791,0,0,1,39.876,34.044Z" transform="translate(-0.012 -0.017)" fill="none" stroke="#35434c" stroke-linecap="round" stroke-linejoin="round" stroke-width="2"/>
          <path id="Path_383" data-name="Path 383" d="M59.652,34.044h-16.2a1.791,1.791,0,0,1-1.785-1.785V29.725H61.437v2.534A1.791,1.791,0,0,1,59.652,34.044Z" transform="translate(-0.024 -0.017)" fill="none" stroke="#35434c" stroke-linecap="round" stroke-linejoin="round" stroke-width="2"/>
          <path id="Path_384" data-name="Path 384" d="M79.429,34.044h-16.2a1.791,1.791,0,0,1-1.785-1.785V29.725H81.214v2.534A1.791,1.791,0,0,1,79.429,34.044Z" transform="translate(-0.035 -0.017)" fill="none" stroke="#35434c" stroke-linecap="round" stroke-linejoin="round" stroke-width="2"/>
          <line id="Line_76" data-name="Line 76" x1="3.343" y2="6.653" transform="translate(16.902 77.841)" fill="none" stroke="#35434c" stroke-linecap="round" stroke-linejoin="round" stroke-width="2"/>
          <line id="Line_77" data-name="Line 77" x2="3.343" y2="6.653" transform="translate(36.513 77.841)" fill="none" stroke="#35434c" stroke-linecap="round" stroke-linejoin="round" stroke-width="2"/>
          <path id="Path_385" data-name="Path 385" d="M36.594,66.67H22.566l-1.691-8.956c-.163-.962-.53-1.274-2.288-1.016l-1.075.169a1.639,1.639,0,0,0-1.052,2.058s1.681,8.911,1.681,9.35v7.2a2.4,2.4,0,0,0,2.4,2.395H37.47a2.4,2.4,0,0,0,2.395-2.395V70.9C39.865,69.581,39.376,66.789,36.594,66.67Z" transform="translate(-0.009 -0.032)" fill="none" stroke="#35434c" stroke-linecap="round" stroke-linejoin="round" stroke-width="2"/>
          <line id="Line_78" data-name="Line 78" x2="3.343" y2="6.653" transform="translate(81.754 77.841)" fill="none" stroke="#35434c" stroke-linecap="round" stroke-linejoin="round" stroke-width="2"/>
          <line id="Line_79" data-name="Line 79" x1="3.343" y2="6.653" transform="translate(62.144 77.841)" fill="none" stroke="#35434c" stroke-linecap="round" stroke-linejoin="round" stroke-width="2"/>
          <path id="Path_386" data-name="Path 386" d="M65.45,66.67H79.477l1.691-8.956c.163-.962.53-1.274,2.288-1.016l1.075.169a1.639,1.639,0,0,1,1.052,2.058S83.9,67.836,83.9,68.274v7.2a2.4,2.4,0,0,1-2.4,2.395H64.574a2.4,2.4,0,0,1-2.395-2.395V70.9C62.179,69.581,62.669,66.789,65.45,66.67Z" transform="translate(-0.035 -0.032)" fill="none" stroke="#35434c" stroke-linecap="round" stroke-linejoin="round" stroke-width="2"/>
          <path id="Path_387" data-name="Path 387" d="M62.608,60.266H39.435a1.351,1.351,0,1,1,0-2.7H62.608a1.351,1.351,0,0,1,0,2.7Z" transform="translate(-0.022 -0.033)" fill="none" stroke="#35434c" stroke-linecap="round" stroke-linejoin="round" stroke-width="2"/>
          <line id="Line_80" data-name="Line 80" y1="21.553" transform="translate(51 35.026)" fill="none" stroke="#35434c" stroke-linecap="round" stroke-linejoin="round" stroke-width="2"/>
          <ellipse id="Ellipse_2" data-name="Ellipse 2" cx="5.167" cy="0.86" rx="5.167" ry="0.86" transform="translate(45.833 83.572)" fill="none" stroke="#35434c" stroke-linecap="round" stroke-linejoin="round" stroke-width="2"/>
        </g>
      </g>
    </g>
  </g>
</svg>
